<svg class="icon" style="width: 1em;height: 1em;vertical-align: middle;fill: currentColor;overflow: hidden;" viewBox="0 0 1024 1024" version="1.1" xmlns="http://www.w3.org/2000/svg"><path d="M484.864 160.256L326.144 97.28h-3.072l-164.864 30.72c-3.072 0-4.096 3.072-4.096 6.144 0 1.536 1.536 4.096 3.072 4.096 18.944 8.704 37.888 17.408 56.832 27.648 30.72 15.872 86.016 50.688 97.792 71.68 4.096 7.168 6.144 15.872 6.144 25.088l1.536 527.872s1.536 67.072 157.696 173.568c3.072 1.536 11.776 3.072 12.8 0V164.864c-2.048-1.536-2.048-4.608-5.12-4.608zM558.08 160.256L716.8 97.28h3.072l164.864 30.72c3.072 0 4.096 3.072 4.096 6.144 0 1.536-1.536 4.096-3.072 4.096-18.944 8.704-37.888 17.408-56.832 27.648-30.72 15.872-86.016 50.688-97.792 71.68-4.096 8.704-6.144 17.408-6.144 26.112l-1.536 527.872s-1.536 67.072-157.696 173.568c-3.072 1.536-11.776 3.072-12.8 0V164.864c2.048-1.536 2.048-4.608 5.12-4.608z" fill="#3390FF" /><path d="M117.248 379.392h263.68l34.816 31.744c1.536 1.536 1.536 1.536 3.072 1.536s3.072 0 3.072-1.536l93.184-101.888c1.536-1.536 1.536-3.072 1.536-6.144-1.536-1.536-3.072-3.072-4.096-3.072H169.984c-14.848-1.536-27.648 3.072-39.424 10.24-10.24 8.704-18.944 23.04-18.944 49.664v12.8c0 2.048 3.072 5.12 5.632 6.656 0-1.536 0-1.536 0 0z m876.544-74.24h-376.32l-3.072 1.536-68.608 64c-1.536 1.536-1.536 6.144 0 7.168 1.536 1.536 3.072 1.536 3.072 1.536h301.568l15.872 22.016c1.536 1.536 4.096 3.072 7.168 1.536l122.368-87.552c1.536-1.536 3.072-4.096 0-7.168 0.512-3.072-0.512-3.072-2.048-3.072z m-125.44 400.896c-10.24 1.536-20.48 3.072-30.72 3.072-89.088-3.072-161.792-71.68-168.96-160.256-1.536-11.776-1.536-23.04-1.536-34.816 0-29.184 1.536-59.904 7.168-89.088 0-1.536 0-3.072-1.536-4.096-1.536-1.536-3.072-1.536-4.096-1.536h-134.144c-1.536 0-4.096 1.536-4.096 3.072-11.776 33.792-17.408 70.144-17.408 106.496 0 29.184 4.096 44.032 14.848 78.848 26.112 79.872 122.368 157.696 199.68 157.696 116.736 0 145.92-40.96 146.944-53.76-0.512-4.096-2.048-5.632-6.144-5.632zM302.592 422.912l-4.096-1.536H146.944c-3.072 0-4.096 3.072-4.096 4.096 0 1.536 0 3.072 1.536 3.072 0 0 205.824 237.568 209.92 243.712 0 0 0 1.536 1.536 1.536l-1.536 1.536H232.96c-17.408 0-34.816-6.144-49.664-15.872-6.144-4.096-10.24-10.24-14.848-15.872-1.536-1.536-1.536-1.536-3.072-1.536s-3.072 0-4.096 1.536L47.616 748.032c-1.536 1.536-1.536 6.144 0 7.168 1.536 1.536 1.536 1.536 3.072 1.536h424.448c25.088 0 40.96-26.112 41.984-50.688 0-10.24-3.072-20.48-8.704-27.648-18.944-18.944-205.824-255.488-205.824-255.488z" fill="#CCE1FF" /></svg>